Coordinates
version=1
nRows=35
nColumns=34
inDegrees=no

Units are S.I. units (second, meters, Newtons, ...)
If the header above contains a line with 'inDegrees', this indicates whether rotational values are in degrees (yes) or radians (no).

endheader
time	pelvis_tilt	pelvis_list	pelvis_rotation	pelvis_tx	pelvis_ty	pelvis_tz	hip_flexion_r	hip_adduction_r	hip_rotation_r	knee_angle_r	ankle_angle_r	subtalar_angle_r	mtp_angle_r	hip_flexion_l	hip_adduction_l	hip_rotation_l	knee_angle_l	ankle_angle_l	subtalar_angle_l	mtp_angle_l	lumbar_extension	lumbar_bending	lumbar_rotation	arm_flex_r	arm_add_r	arm_rot_r	elbow_flex_r	pro_sup_r	arm_flex_l	arm_add_l	arm_rot_l	elbow_flex_l	pro_sup_l
30.0111	-0.230217	-0.420361	1.22798	1.01625	0.659635	-0.199721	1.50292	-0.504854	-0.258581	1.5338	0.356661	-0.11819	-0.133286	0.0600926	-0.459804	-0.603916	0.622036	0.578551	-0.225726	-0.133286	0.245758	0.0207942	-0.0148918	1.44653	-0.841482	-5.30951	2.01408	0.719942	1.24054	-0.289124	0.980063	1.93937	2.09002
30.0311	-0.244817	-0.437482	1.2265	1.02893	0.654433	-0.206965	1.52266	-0.500106	-0.252486	1.56061	0.387274	-0.121579	-0.133286	0.0271444	-0.44853	-0.644506	0.540132	0.554875	-0.164191	-0.133286	0.263619	0.0154133	-0.0160641	1.47433	-0.83049	-5.30338	1.9466	0.716372	1.25053	-0.259685	0.960202	1.8671	2.09003
30.0511	-0.256214	-0.452456	1.22819	1.03854	0.65042	-0.212892	1.53826	-0.498048	-0.247731	1.58088	0.411386	-0.12615	-0.133286	-0.000940481	-0.435274	-0.674433	0.46246	0.529526	-0.105335	-0.133286	0.278905	0.0107359	-0.0203926	1.49676	-0.815401	-5.29919	1.87492	0.71472	1.2604	-0.22921	0.941985	1.79115	2.09002
30.0711	-0.264043	-0.464477	1.2331	1.04523	0.647708	-0.217467	1.54928	-0.498368	-0.243931	1.59509	0.429245	-0.132293	-0.133286	-0.0244058	-0.421026	-0.692451	0.390849	0.503738	-0.0515296	-0.133286	0.290611	0.00685733	-0.0272705	1.51421	-0.796327	-5.2978	1.79985	0.715302	1.27093	-0.198122	0.925598	1.71305	2.09001
30.0911	-0.268162	-0.472953	1.24047	1.04934	0.646315	-0.220693	1.55545	-0.500041	-0.240965	1.60369	0.441094	-0.14033	-0.133286	-0.0437832	-0.407249	-0.701095	0.327814	0.479242	-0.00516129	-0.133286	0.298078	0.00402641	-0.0356446	1.5272	-0.773099	-5.29971	1.72109	0.719382	1.28275	-0.166888	0.910932	1.63406	2.09001
30.1111	-0.268515	-0.4778	1.2492	1.05132	0.646172	-0.222589	1.55665	-0.50158	-0.239161	1.60705	0.447317	-0.150631	-0.133286	-0.0591367	-0.396112	-0.703813	0.276845	0.45823	0.0317723	-0.133286	0.301294	0.0026307	-0.0444483	1.53673	-0.745333	-5.3047	1.63709	0.730054	1.29643	-0.135783	0.897507	1.55483	2.09
30.1311	-0.26542	-0.478898	1.25803	1.05171	0.647174	-0.223222	1.55292	-0.501568	-0.238577	1.6057	0.448573	-0.163169	-0.133286	-0.0708564	-0.389211	-0.703576	0.240614	0.442492	0.0584645	-0.133286	0.300472	0.00261824	-0.052609	1.54434	-0.712569	-5.31227	1.54518	0.755863	1.31276	-0.104748	0.884412	1.4753	2.09
30.1511	-0.259797	-0.47621	1.26571	1.051	0.649189	-0.222718	1.54479	-0.499031	-0.238561	1.6003	0.445601	-0.177638	-0.133286	-0.0796463	-0.386734	-0.702449	0.219735	0.432857	0.0753657	-0.133286	0.296213	0.00342996	-0.05916	1.55173	-0.674557	-5.32247	1.44276	0.810475	1.33246	-0.0735264	0.87029	1.39527	2.09
30.1711	-0.252884	-0.470154	1.27124	1.04947	0.652057	-0.22125	1.53348	-0.49347	-0.237904	1.59147	0.439019	-0.193896	-0.133286	-0.0859331	-0.387865	-0.701625	0.213215	0.42941	0.0836419	-0.133286	0.289733	0.00443338	-0.0635823	1.56015	-0.631601	-5.33655	1.32909	0.90824	1.35577	-0.0419256	0.853754	1.31493	2.09
30.1911	-0.24574	-0.46152	1.27399	1.0472	0.655624	-0.219006	1.52048	-0.484528	-0.235153	1.57963	0.429159	-0.212364	-0.133286	-0.0896342	-0.391534	-0.70161	0.219628	0.431866	0.0841046	-0.133286	0.282501	0.00529339	-0.0658586	1.57032	-0.584604	-5.3565	1.20608	1.05865	1.38224	-0.00973149	0.834217	1.23443	2.09
30.2111	-0.239023	-0.451602	1.27349	1.0441	0.659737	-0.216071	1.50749	-0.471586	-0.229111	1.56478	0.41593	-0.233943	-0.133286	-0.0895953	-0.397182	-0.702349	0.238505	0.440038	0.0764449	-0.133286	0.276145	0.00611332	-0.0662963	1.58263	-0.53483	-5.38342	1.07799	1.25475	1.41085	0.0235831	0.812058	1.15275	2.09
30.231	-0.232891	-0.441773	1.26933	1.03996	0.664259	-0.212374	1.49588	-0.454055	-0.219447	1.54644	0.398807	-0.259376	-0.133286	-0.0840231	-0.404838	-0.703232	0.270361	0.453808	0.0593822	-0.133286	0.271832	0.00730195	-0.0655138	1.59689	-0.483574	-5.41682	0.950029	1.47734	1.44021	0.0586022	0.78786	1.06773	2.09
30.251	-0.227071	-0.433005	1.26157	1.0345	0.669081	-0.207722	1.48619	-0.432671	-0.20744	1.52395	0.377068	-0.287562	-0.133286	-0.0711092	-0.41477	-0.702977	0.315928	0.47284	0.0317178	-0.133286	0.269855	0.00930485	-0.0644133	1.61247	-0.432893	-5.45377	0.827902	1.69636	1.46897	0.0951851	0.762252	0.977832	2.09
30.271	-0.220652	-0.424645	1.25158	1.02732	0.674168	-0.202007	1.47672	-0.411653	-0.196989	1.49705	0.350461	-0.312942	-0.133286	-0.0507412	-0.426938	-0.699484	0.374805	0.496161	-0.00611768	-0.133286	0.268643	0.0123886	-0.0642971	1.6287	-0.386128	-5.48867	0.717148	1.8801	1.49595	0.131822	0.736631	0.884443	2.09
30.291	-0.213326	-0.416168	1.24055	1.01797	0.679479	-0.19508	1.46654	-0.393773	-0.189864	1.4652	0.318491	-0.332842	-0.133286	-0.0228815	-0.440153	-0.68988	0.445205	0.522217	-0.0527767	-0.133286	0.267117	0.0164611	-0.0654314	1.64491	-0.347282	-5.51485	0.622207	2.00746	1.5197	0.165679	0.713099	0.793439	2.09
30.311	-0.204883	-0.406604	1.22988	1.00603	0.685032	-0.186815	1.45452	-0.380723	-0.186212	1.42783	0.280904	-0.346639	-0.133286	0.0115972	-0.452585	-0.671076	0.524032	0.549022	-0.105718	-0.133286	0.264019	0.0210868	-0.0674841	1.65989	-0.31956	-5.52933	0.545433	2.07977	1.53834	0.193493	0.693348	0.713729	2.09
30.331	-0.194534	-0.39484	1.22134	0.99118	0.690867	-0.177104	1.43884	-0.37342	-0.186287	1.38441	0.237763	-0.354886	-0.133286	0.0513205	-0.463302	-0.641302	0.608545	0.574955	-0.162095	-0.133286	0.257924	0.0260442	-0.0700723	1.67165	-0.304916	-5.53433	0.487539	2.11152	1.55039	0.212879	0.677194	0.652316	2.09
30.351	-0.18116	-0.379517	1.21652	0.973344	0.697018	-0.16595	1.41703	-0.372557	-0.191116	1.33477	0.189999	-0.357312	-0.133286	0.0938239	-0.472133	-0.60311	0.696165	0.598807	-0.218496	-0.133286	0.247214	0.0312519	-0.0729861	1.6774	-0.304388	-5.5356	0.449416	2.11885	1.55568	0.222795	0.662683	0.610394	2.09
30.371	-0.16402	-0.359731	1.21636	0.952616	0.703499	-0.153479	1.38699	-0.377998	-0.201523	1.2789	0.139549	-0.353856	-0.133286	0.136385	-0.479026	-0.560849	0.784137	0.619872	-0.272124	-0.133286	0.231001	0.0366705	-0.0763231	1.67383	-0.318446	-5.54023	0.434149	2.11449	1.55484	0.223111	0.647962	0.584991	2.09
30.391	-0.143118	-0.335196	1.22115	0.92928	0.710339	-0.139978	1.34741	-0.389057	-0.217944	1.21701	0.0896116	-0.344681	-0.133286	0.176294	-0.483578	-0.518775	0.869107	0.637999	-0.320476	-0.133286	0.20931	0.0421764	-0.0803509	1.65771	-0.347104	-5.55367	0.446527	2.10651	1.54793	0.214207	0.63281	0.573934	2.09
30.411	-0.119275	-0.306207	1.23056	0.903812	0.717565	-0.125882	1.29797	-0.404616	-0.240217	1.14976	0.0446615	-0.330165	-0.133286	0.211107	-0.484842	-0.479817	0.947288	0.653622	-0.361218	-0.133286	0.182828	0.047472	-0.084781	1.62622	-0.38985	-5.57898	0.490267	2.09911	1.53387	0.197045	0.618471	0.578279	2.09
30.431	-0.0939358	-0.273621	1.24372	0.876872	0.725117	-0.111684	1.23974	-0.423212	-0.267382	1.07866	0.00991117	-0.310731	-0.133286	0.2393	-0.481526	-0.44481	1.01549	0.667464	-0.393231	-0.133286	0.152588	0.0521166	-0.0883776	1.57721	-0.445824	-5.61618	0.567115	2.09381	1.51155	0.173041	0.607103	0.600697	2.09
30.451	-0.0688231	-0.238957	1.25941	0.849245	0.732796	-0.0978333	1.17532	-0.44305	-0.297796	1.00589	-0.0099625	-0.286991	-0.133286	0.260835	-0.472823	-0.413442	1.07225	0.680055	-0.416508	-0.133286	0.119983	0.0557052	-0.0892731	1.50857	-0.512994	-5.66657	0.676592	2.0907	1.48063	0.143802	0.599813	0.643146	2.09
30.471	-0.0453906	-0.20414	1.27671	0.82174	0.740337	-0.0846764	1.10802	-0.462468	-0.329634	0.9339	-0.0121763	-0.259782	-0.133286	0.276972	-0.459092	-0.38533	1.11787	0.691179	-0.432025	-0.133286	0.0865822	0.0580588	-0.0859556	1.41752	-0.587862	-5.73374	0.815951	2.08928	1.44155	0.110506	0.596411	0.706205	2.09
30.491	-0.0245019	-0.170916	1.29518	0.795091	0.74753	-0.0724713	1.04071	-0.480329	-0.361532	0.864603	0.00338302	-0.229971	-0.133286	0.289255	-0.441781	-0.36061	1.15357	0.700202	-0.440863	-0.133286	0.0538046	0.0592876	-0.0777839	1.30038	-0.665441	-5.82242	0.980234	2.08888	1.39513	0.0736652	0.596047	0.789362	2.09
30.511	-0.00647891	-0.14053	1.31437	0.769913	0.754224	-0.061388	0.975356	-0.495914	-0.392808	0.799079	0.0341189	-0.198725	-0.133286	0.29882	-0.422723	-0.339651	1.18078	0.706813	-0.44417	-0.133286	0.0228012	0.0597725	-0.0647824	1.1544	-0.73913	-5.93616	1.16218	2.08901	1.34229	0.0332983	0.597607	0.891379	2.09
30.531	0.00869634	-0.113448	1.33316	0.746692	0.760316	-0.0515009	0.913153	-0.508562	-0.423161	0.737562	0.0757141	-0.166952	-0.133286	0.305948	-0.403251	-0.322633	1.20086	0.711207	-0.44404	-0.133286	-0.00583459	0.0600107	-0.047234	0.981136	-0.801127	-6.07397	1.35231	2.08931	1.28376	-0.0107525	0.599429	1.01024	2.09
30.551	0.0213154	-0.089496	1.34982	0.725776	0.765742	-0.0427934	0.854675	-0.517463	-0.452393	0.679575	0.123148	-0.135143	-0.133286	0.310301	-0.384103	-0.309394	1.21505	0.713822	-0.443361	-0.133286	-0.0320942	0.0604897	-0.0259268	0.788137	-0.844141	-6.22882	1.54106	2.08961	1.21948	-0.0587847	0.598931	1.14334	2.09
30.5709	0.0319611	-0.0681162	1.36268	0.707365	0.770481	-0.0351969	0.799995	-0.521863	-0.480355	0.624299	0.17158	-0.103335	-0.133286	0.311361	-0.365827	-0.299526	1.22455	0.71514	-0.444719	-0.133286	-0.0564119	0.0616328	-0.00264731	0.587172	-0.863514	-6.38889	1.72117	2.08983	1.14811	-0.111349	0.592961	1.28801	2.09
30.5909	0.0414754	-0.0486455	1.37049	0.691524	0.774526	-0.0286353	0.748956	-0.521157	-0.506777	0.571023	0.21695	-0.0713186	-0.133286	0.308738	-0.349133	-0.292624	1.23064	0.715623	-0.449792	-0.133286	-0.0794041	0.0638439	0.0198595	0.390965	-0.858281	-6.53994	1.88799	2.08996	1.06743	-0.169044	0.5785	1.44154	2.09
30.6109	0.0507767	-0.0305464	1.37236	0.678232	0.777862	-0.0230566	0.701632	-0.514927	-0.530905	0.519631	0.256332	-0.0390687	-0.133286	0.302279	-0.334917	-0.288558	1.23465	0.715707	-0.459353	-0.133286	-0.101586	0.0674416	0.0383683	0.210263	-0.830685	-6.668	2.03822	2.09002	0.974869	-0.231872	0.553032	1.6006	2.09
30.6309	0.0605942	-0.0136686	1.36787	0.667435	0.780467	-0.018447	0.658721	-0.503176	-0.551495	0.470982	0.288182	-0.00721714	-0.133286	0.292237	-0.324066	-0.287433	1.23776	0.715765	-0.473413	-0.133286	-0.123054	0.0725311	0.0497486	0.0518213	-0.785119	-6.7618	2.16893	2.09004	0.867715	-0.298409	0.514555	1.76096	2.09
30.6509	0.0712928	0.00165008	1.35733	0.659061	0.782338	-0.014822	0.621443	-0.486611	-0.567346	0.426844	0.312324	0.0230469	-0.133286	0.279456	-0.317208	-0.28925	1.24082	0.71602	-0.491385	-0.133286	-0.143403	0.0790115	0.0514223	-0.0822504	-0.727494	-6.81424	2.27765	2.09004	0.7435	-0.365343	0.461844	1.9175	2.09
30.6709	0.0827698	0.0148587	1.3418	0.653004	0.783514	-0.012193	0.590942	-0.46664	-0.577878	0.389108	0.329568	0.0509179	-0.133286	0.265096	-0.314436	-0.293735	1.24428	0.716514	-0.512205	-0.133286	-0.16202	0.0866055	0.0418107	-0.193786	-0.664753	-6.8235	2.3628	2.09003	0.600537	-0.427964	0.394789	2.06474	2.09
30.6909	0.0944375	0.0255579	1.32272	0.649083	0.784093	-0.0105192	0.567803	-0.44504	-0.583041	0.35893	0.341121	0.0758138	-0.133286	0.250155	-0.315139	-0.300567	1.24802	0.717195	-0.534268	-0.133286	-0.178415	0.0948437	0.0208744	-0.28726	-0.604205	-6.79362	2.42388	2.09002	0.438624	-0.481204	0.31488	2.19733	2.09
